<svg width="28" height="28" viewBox="0 0 28 28" fill="none" xmlns="http://www.w3.org/2000/svg">
<path d="M23.7432 22.8825C27.8265 18.9894 27.9928 12.3318 24.3083 7.91295C23.509 6.95313 22.7951 6.00786 21.4366 5.81386C20.9603 5.74693 20.9031 5.07181 20.4486 4.8361C18.3321 3.74242 16.2408 2.59054 13.7348 2.75059C13.6167 2.75562 13.501 2.71675 13.4098 2.64147C12.5684 1.85237 11.4247 1.81696 10.43 1.71172C8.6782 1.52645 6.93802 1.12972 5.15661 1.20974C3.59831 1.28104 2.49542 2.00078 1.97841 3.41989C1.86204 3.73404 1.82473 4.07199 1.86977 4.40396C2.23352 6.63157 2.18405 8.91447 2.7355 11.1149C2.75247 11.1843 2.71707 11.2687 2.74035 11.3332C3.61917 13.7582 3.71811 16.4208 5.04312 18.7052C5.34916 19.2334 5.56547 19.8066 6.13728 20.1486C6.31382 20.2543 6.51558 20.3804 6.60531 20.6767C7.32214 23.0416 9.28978 24.1154 11.319 25.0747C15.4565 27.0307 20.5442 26.1786 23.6332 22.9921" stroke="black" stroke-width="2" stroke-linecap="round" stroke-linejoin="round"/>
</svg>
